<?xml version="1.0" encoding="utf-8"?>
<!-- Svg Vector Icons : http://www.onlinewebfonts.com/icon -->
<!DOCTYPE svg PUBLIC "-//W3C//DTD SVG 1.1//EN" "http://www.w3.org/Graphics/SVG/1.1/DTD/svg11.dtd">
<svg version="1.1" xmlns="http://www.w3.org/2000/svg" xmlns:xlink="http://www.w3.org/1999/xlink" x="0px" y="0px" viewBox="0 0 1000 1000" enable-background="new 0 0 1000 1000" xml:space="preserve">
<metadata> Svg Vector Icons : http://www.onlinewebfonts.com/icon </metadata>
<g><g transform="translate(0.000000,511.000000) scale(0.100000,-0.100000)"><path d="M4497.9,4985C2821.5,4811,1343.6,3776.7,600.9,2259.6C341.1,1727.8,184.3,1173.9,123,578.3c-88.2-887.2,78.4-1799,477.9-2617.6C1500.4-3875,3453.8-4968.1,5468.4-4767.1c1708.3,174,3181.3,1196,3933.7,2732.8c664.2,1362.7,664.2,2923.9-2.4,4291.5C8502.7,4100.2,6532.1,5195.8,4497.9,4985z M5742.9,3958.1c1588.2-313.7,2791.6-1519.6,3110.2-3117.6c78.4-397,78.4-1063.7,0-1460.7c-281.9-1411.7-1274.5-2544-2620-2992.6c-419.1-137.2-725.5-183.8-1232.8-183.8c-372.5,0-502.4,9.8-730.4,53.9c-377.4,76-671.6,176.5-1022,350.5c-387.2,191.2-701,419.1-1017.1,732.8c-563.7,563.7-921.5,1240.2-1083.3,2039.2c-78.4,394.6-78.4,1061.2,0,1460.7c76,382.3,178.9,678.9,350.5,1022c193.6,389.7,419.1,703.4,732.8,1017.1c563.7,563.7,1262.2,933.8,2026.9,1075.9c362.7,68.6,409.3,71.1,840.7,63.7C5360.6,4014.4,5561.6,3994.8,5742.9,3958.1z"/><path d="M4333.7,2134.6c-291.7-137.3-536.7-254.9-544.1-262.3c-19.6-19.6,137.3-708.3,159.3-708.3c12.3,0,191.2,80.9,401.9,181.4l379.9,183.8V-112.9v-1639.7h465.7h465.7v2071v2071L5265,2387l-399.5-2.5L4333.7,2134.6z"/></g></g>
</svg>