<?xml version="1.0" encoding="utf-8"?>
<!-- Svg Vector Icons : http://www.onlinewebfonts.com/icon -->
<!DOCTYPE svg PUBLIC "-//W3C//DTD SVG 1.1//EN" "http://www.w3.org/Graphics/SVG/1.1/DTD/svg11.dtd">
<svg version="1.1" xmlns="http://www.w3.org/2000/svg" xmlns:xlink="http://www.w3.org/1999/xlink" x="0px" y="0px" viewBox="0 0 1000 1000" enable-background="new 0 0 1000 1000" xml:space="preserve">
<metadata> Svg Vector Icons : http://www.onlinewebfonts.com/icon </metadata>
<g><g transform="translate(0.000000,511.000000) scale(0.100000,-0.100000)"><path d="M4497.9,4985C2821.5,4811,1343.6,3776.7,600.9,2259.6C341.1,1727.8,184.3,1173.9,123,578.3c-88.2-887.2,78.4-1799,477.9-2617.6C1500.4-3875,3453.8-4968.1,5468.4-4767.1c1708.3,174,3181.3,1196,3933.7,2732.8c664.2,1362.7,664.2,2923.9-2.4,4291.5C8502.7,4100.2,6532.1,5195.8,4497.9,4985z M5742.9,3958.1c1588.2-313.7,2791.6-1519.6,3110.2-3117.6c78.4-397,78.4-1063.7,0-1460.7c-281.9-1411.7-1274.5-2544-2620-2992.6c-419.1-137.2-725.5-183.8-1232.8-183.8c-372.5,0-502.4,9.8-730.4,53.9c-377.4,76-671.6,176.5-1022,350.5c-387.2,191.2-701,419.1-1017.1,732.8c-563.7,563.7-921.5,1240.2-1083.3,2039.2c-78.4,394.6-78.4,1061.2,0,1460.7c76,382.3,178.9,678.9,350.5,1022c193.6,389.7,419.1,703.4,732.8,1017.1c563.7,563.7,1262.2,933.8,2026.9,1075.9c362.7,68.6,409.3,71.1,840.7,63.7C5360.6,4014.4,5561.6,3994.8,5742.9,3958.1z"/><path d="M4441.5,2208.1c-348-66.2-764.7-223-764.7-286.8c0-27,174-642.1,186.3-656.8c2.5-4.9,90.7,27,191.2,68.6c607.8,252.5,1164.2,178.9,1267.1-169.1c63.7-210.8-66.2-421.6-316.2-517.1c-110.3-41.7-210.8-56.4-463.2-66.2l-326-12.3V230.2v-340.7H4444c443.6,0,705.9-78.4,872.5-257.3c176.5-193.6,183.8-470.6,12.3-669.1c-235.3-276.9-830.9-299-1414.2-53.9c-95.6,39.2-176.5,71.1-178.9,66.2c-12.3-12.3-181.4-651.9-181.4-686.3c0-80.9,419.1-235.3,781.8-286.8c326-49,845.6-19.6,1117.6,61.3c568.6,166.7,921.5,524.5,992.6,1009.8c80.9,522-252.4,1009.8-781.8,1144.6l-107.8,29.4l183.8,88.2c227.9,115.2,397,279.4,495.1,485.3c68.6,144.6,76,181.4,76,392.1c0,201-9.8,252.4-66.2,372.5c-125,269.6-365.2,468.1-701,578.4c-161.8,51.5-242.6,61.3-556.4,68.6C4745.4,2237.5,4559.2,2230.2,4441.5,2208.1z"/></g></g>
</svg>