<?xml version="1.0" encoding="utf-8"?>
<!-- Svg Vector Icons : http://www.onlinewebfonts.com/icon -->
<!DOCTYPE svg PUBLIC "-//W3C//DTD SVG 1.1//EN" "http://www.w3.org/Graphics/SVG/1.1/DTD/svg11.dtd">
<svg version="1.1" xmlns="http://www.w3.org/2000/svg" xmlns:xlink="http://www.w3.org/1999/xlink" x="0px" y="0px" viewBox="0 0 1000 1000" enable-background="new 0 0 1000 1000" xml:space="preserve">
<metadata> Svg Vector Icons : http://www.onlinewebfonts.com/icon </metadata>
<g><g transform="translate(0.000000,511.000000) scale(0.100000,-0.100000)"><path d="M4497.9,4985C2821.5,4811,1343.6,3776.7,600.9,2259.6C341.1,1727.8,184.3,1173.9,123,578.3c-88.2-887.2,78.4-1799,477.9-2617.6C1500.4-3875,3453.8-4968.1,5468.4-4767.1c1708.3,174,3181.3,1196,3933.7,2732.8c664.2,1362.7,664.2,2923.9-2.4,4291.5C8502.7,4100.2,6532.1,5195.8,4497.9,4985z M5742.9,3958.1c1588.2-313.7,2791.6-1519.6,3110.2-3117.6c78.4-397,78.4-1063.7,0-1460.7c-281.9-1411.7-1274.5-2544-2620-2992.6c-419.1-137.2-725.5-183.8-1232.8-183.8c-372.5,0-502.4,9.8-730.4,53.9c-377.4,76-671.6,176.5-1022,350.5c-387.2,191.2-701,419.1-1017.1,732.8c-563.7,563.7-921.5,1240.2-1083.3,2039.2c-78.4,394.6-78.4,1061.2,0,1460.7c76,382.3,178.9,678.9,350.5,1022c193.6,389.7,419.1,703.4,732.8,1017.1c563.7,563.7,1262.2,933.8,2026.9,1075.9c362.7,68.6,409.3,71.1,840.7,63.7C5360.6,4014.4,5561.6,3994.8,5742.9,3958.1z"/><path d="M4598.4,2193.4c-338.2-53.9-774.5-218.1-955.9-360.3l-56.4-46.6l125-321.1c68.6-176.5,132.3-330.9,142.2-338.2c9.8-9.8,46.6,4.9,85.8,31.9c237.7,166.7,553.9,274.5,806.3,274.5c424,0,671.6-218.1,671.6-588.2c0-428.9-294.1-808.8-1401.9-1818.6l-485.3-441.2V-1706v-291.7h1470.5h1470.6l-4.9,399.5l-7.3,397.1l-769.6,12.3l-769.6,12.3l284.3,240.2C5735.6-487.9,6144.9,4.8,6274.8,347.9c120.1,321.1,147.1,566.2,85.8,850.5c-105.4,492.6-428.9,828.4-931.3,958.3C5250.3,2205.7,4796.9,2222.8,4598.4,2193.4z"/></g></g>
</svg>